<?xml version="1.0" standalone="no"?>
<!DOCTYPE svg PUBLIC "-//W3C//DTD SVG 20010904//EN"
 "http://www.w3.org/TR/2001/REC-SVG-20010904/DTD/svg10.dtd">
<svg version="1.0" xmlns="http://www.w3.org/2000/svg"
 width="600.000000pt" height="600.000000pt" viewBox="0 0 600.000000 600.000000"
 preserveAspectRatio="xMidYMid meet">
<metadata>
Created by potrace 1.14, written by Peter Selinger 2001-2017
</metadata>
<g transform="translate(0.000000,600.000000) scale(0.100000,-0.100000)"
fill="#000000" stroke="none">
<path d="M2660 5993 c-198 -24 -401 -68 -577 -124 l-92 -30 -41 21 c-22 11
-40 18 -40 15 0 -13 173 -87 242 -104 l72 -19 -71 -7 c-63 -6 -82 -3 -159 22
-87 28 -87 28 -110 78 -26 56 -32 54 -9 -2 8 -20 14 -37 13 -38 -2 -1 -82 -40
-178 -87 -313 -154 -528 -307 -776 -553 -221 -219 -366 -411 -509 -673 -161
-297 -279 -653 -321 -977 -22 -170 -35 -391 -28 -490 l7 -90 -29 25 -28 25 28
-35 c15 -19 71 -100 123 -180 202 -304 238 -357 282 -410 69 -83 76 -86 96
-38 13 33 13 51 -6 223 -10 87 -57 293 -97 423 -17 53 -18 62 -5 62 26 0 83
-32 103 -57 30 -39 77 -170 99 -278 30 -151 88 -363 117 -427 14 -32 47 -121
75 -199 49 -140 49 -142 31 -163 -25 -27 -62 -129 -61 -164 1 -20 2 -22 6 -7
20 90 49 151 105 217 33 39 73 99 90 132 54 107 81 139 148 174 35 18 71 32
81 32 30 0 24 -46 -17 -130 -87 -181 -184 -458 -184 -528 0 -40 -36 -96 -102
-157 -35 -33 -75 -68 -88 -78 l-25 -18 25 12 c14 7 43 28 64 47 l39 35 17 -59
c10 -32 30 -124 44 -204 35 -188 68 -323 75 -311 3 5 47 -23 97 -63 50 -39
104 -80 120 -92 27 -19 28 -23 16 -46 -8 -14 -12 -36 -9 -49 4 -21 4 -20 6 6
1 17 11 41 22 55 l20 25 -7 -25 c-4 -14 -15 -59 -25 -100 -15 -67 -17 -71 -21
-40 -4 27 -6 22 -8 -25 -2 -33 -4 -68 -4 -77 0 -9 -4 -14 -9 -11 -6 3 -6 -14
-2 -45 5 -38 2 -66 -14 -114 -11 -35 -22 -70 -24 -78 -2 -8 -9 12 -16 45 -66
334 -109 520 -118 512 -2 -3 3 -35 11 -73 8 -38 31 -141 50 -229 19 -88 47
-231 62 -317 l28 -158 412 0 412 0 11 82 c7 46 21 121 32 168 21 93 155 566
196 695 17 53 27 115 32 185 6 105 6 105 33 108 38 5 48 -20 38 -98 -17 -136
-93 -437 -150 -600 -23 -63 -48 -145 -55 -182 -12 -54 -35 -285 -35 -345 0
-17 286 -19 292 -2 2 6 39 23 83 39 44 16 75 29 69 29 -6 1 -37 -8 -69 -19
-32 -11 -61 -20 -65 -20 -7 0 -40 72 -40 85 0 12 67 36 155 57 54 12 93 24 88
25 -6 2 -55 -7 -111 -20 l-100 -24 -6 30 c-15 72 3 86 157 122 46 11 72 22 65
26 -7 5 -18 23 -25 41 l-13 33 6 -40 5 -41 -68 -16 c-37 -9 -69 -15 -71 -13
-2 2 22 53 54 114 44 85 63 112 85 122 27 11 33 8 101 -47 142 -113 246 -223
305 -322 31 -51 58 -91 60 -88 2 2 -15 35 -39 72 l-43 69 -6 185 c-3 102 -11
232 -17 290 -12 116 -34 415 -38 527 -3 61 0 73 13 73 13 0 13 -3 3 -15 -10
-12 -9 -15 4 -15 27 0 34 -36 45 -220 6 -96 19 -247 30 -335 19 -155 49 -483
55 -595 1 -32 11 -70 21 -88 l19 -32 722 0 721 0 46 59 c26 32 67 103 92 157
35 74 48 95 55 84 7 -11 10 -1 10 33 0 33 -9 63 -29 102 -16 30 -32 78 -36
107 -5 36 -10 47 -15 34 -5 -16 -14 -8 -52 45 -57 81 -72 127 -64 193 8 66 60
239 69 230 4 -4 7 -54 7 -110 0 -57 4 -105 9 -108 4 -3 43 23 85 59 549 456
906 1085 1018 1795 20 127 23 181 23 435 0 230 -4 314 -18 405 -66 415 -192
762 -405 1115 -228 377 -598 740 -982 966 -41 24 -104 67 -138 95 -82 68 -169
108 -262 124 -41 7 -131 30 -200 51 -341 104 -458 121 -845 124 -170 2 -326 1
-345 -2z m103 -97 c-35 -13 -69 -28 -75 -33 -40 -30 -246 -91 -318 -94 l-35
-1 30 -8 c41 -10 1 -11 -50 -1 l-40 8 67 31 c103 49 364 117 453 120 23 1 15
-5 -32 -22z m-911 -440 c-86 -85 -159 -152 -161 -150 -3 3 17 27 44 54 27 27
46 52 42 56 -3 4 -20 -7 -36 -24 -42 -41 -51 -44 -181 -53 -114 -7 -327 5
-343 20 -4 5 23 11 62 15 120 11 555 146 681 212 25 13 46 23 47 24 2 0 -68
-69 -155 -154z m2690 -60 c53 -90 120 -236 157 -341 51 -144 128 -431 119
-440 -2 -3 -28 54 -57 125 -46 112 -65 145 -136 235 -82 102 -83 106 -90 172
-10 101 -24 186 -45 277 -21 92 -17 90 52 -28z m-2713 -166 c-34 -60 -65 -94
-77 -86 -19 11 -14 38 14 81 36 54 54 68 71 54 11 -9 9 -18 -8 -49z m1644 38
c6 -19 -11 -48 -29 -48 -20 0 -29 27 -14 45 15 18 37 19 43 3z m-1573 -33 c0
-55 -46 -106 -65 -74 -7 10 10 63 28 87 16 21 37 14 37 -13z m400 -20 c0 -18
-5 -25 -20 -25 -15 0 -20 7 -20 25 0 18 5 25 20 25 15 0 20 -7 20 -25z m-80
-9 c0 -31 -18 -43 -36 -24 -19 18 -8 48 17 48 13 0 19 -7 19 -24z m458 -73 c3
-17 -2 -23 -16 -23 -18 0 -32 18 -32 42 0 21 45 3 48 -19z m1941 -525 c61
-155 135 -288 223 -402 21 -28 19 -27 -42 12 -124 78 -154 111 -183 201 -26
78 -97 406 -97 446 0 11 16 -25 34 -80 19 -55 48 -135 65 -177z m-1589 112
c12 -36 42 -108 68 -160 25 -52 47 -106 47 -120 1 -14 5 -33 9 -42 7 -16 1
-18 -60 -20 l-69 -2 60 -3 c117 -6 120 -7 180 -88 64 -85 202 -219 273 -265
45 -29 50 -36 56 -77 3 -25 6 -76 6 -113 0 -66 0 -66 -35 -83 -45 -22 -58 -21
-51 1 9 29 -25 62 -69 67 -35 4 -36 4 -9 -4 57 -15 57 -15 50 -125 -11 -181
-27 -266 -50 -281 -30 -20 -94 -26 -376 -35 l-245 -9 287 5 c157 2 297 8 311
13 42 16 54 38 67 120 13 87 19 92 75 71 17 -7 24 -7 20 0 -3 6 1 10 9 10 28
0 27 -19 -9 -90 -19 -38 -33 -70 -30 -70 12 0 95 184 106 237 7 30 18 57 25
60 7 2 9 13 6 25 -3 14 -1 19 5 15 7 -5 9 0 6 13 -3 11 -1 20 3 20 12 0 34
-48 24 -52 -12 -4 -17 -72 -6 -78 10 -5 15 13 20 70 2 19 4 35 6 35 2 0 8 34
12 63 1 6 6 12 12 12 7 0 7 3 0 10 -6 6 -9 24 -6 40 3 22 10 30 24 30 18 0 18
1 4 16 -20 20 -21 30 -1 14 8 -7 15 -9 15 -6 0 4 7 1 15 -8 18 -17 20 -30 3
-20 -7 4 -8 3 -4 -5 14 -22 27 0 20 35 -7 40 0 43 26 12 l19 -23 -4 22 c-2 13
0 25 4 27 4 3 7 -7 5 -22 -1 -15 -3 -34 -3 -42 -1 -13 -2 -13 -11 0 -7 10 -8
4 -4 -20 8 -47 -19 -147 -63 -234 -25 -50 -60 -95 -115 -150 l-79 -80 -5 -100
c-8 -203 -6 -196 -87 -273 -109 -103 -333 -247 -495 -317 -23 -11 -40 -21 -37
-24 9 -9 271 126 353 182 45 31 83 56 85 56 1 0 -8 -60 -21 -132 -28 -164 -26
-299 7 -373 22 -49 21 -55 -13 -94 l-21 -24 33 23 32 24 32 -31 31 -32 -30
-83 c-17 -46 -34 -91 -38 -102 -7 -17 -6 -17 21 -3 16 9 56 38 89 66 32 28 62
51 65 51 3 0 13 -13 23 -29 l17 -28 -64 -62 c-40 -37 -73 -61 -88 -62 -22 -1
-22 -1 4 -11 l28 -10 -20 -38 c-25 -49 -70 -86 -172 -139 -97 -51 -95 -49 37
56 55 44 109 90 120 103 11 13 -24 -13 -77 -58 -54 -45 -115 -93 -138 -108
-22 -14 -37 -31 -33 -37 3 -6 1 -7 -6 -3 -10 7 -230 -194 -240 -219 -2 -5 -34
-46 -70 -90 -74 -88 -164 -207 -230 -302 -43 -62 -61 -71 -61 -32 0 36 -59
250 -122 439 -73 221 -75 250 -29 368 18 45 37 82 42 82 6 0 8 4 5 9 -3 4 7
41 23 82 l28 74 109 57 c60 32 114 61 121 64 20 10 35 111 31 209 l-3 94 65
30 c75 36 64 33 -77 -20 -157 -59 -159 -59 -303 1 -196 81 -425 197 -459 231
-35 35 -110 158 -196 324 l-57 110 48 4 49 5 -55 5 c-51 6 -56 9 -72 41 -23
48 -22 53 7 25 15 -15 35 -25 52 -24 30 1 26 3 -20 13 -16 4 -32 17 -39 31 -6
13 -15 22 -19 19 -5 -3 -9 14 -9 38 l0 42 48 -45 c52 -51 111 -94 118 -87 2 3
-13 17 -35 31 -89 59 -152 131 -165 188 -2 13 -3 -10 -1 -51 2 -41 13 -102 24
-134 12 -33 19 -61 17 -63 -2 -2 -27 18 -56 44 -43 40 -52 54 -54 86 -1 20 2
37 6 37 4 0 5 9 3 20 -2 11 0 20 5 20 5 0 7 6 4 14 -3 8 -1 17 4 20 5 3 -1 27
-14 54 -23 49 -28 92 -10 92 5 0 2 6 -8 13 -13 9 -16 20 -12 35 7 21 25 25 37
8 9 -11 31 3 24 15 -4 5 -1 9 4 9 6 0 11 7 11 16 0 9 5 12 13 8 6 -4 9 -3 4 1
-9 11 21 45 40 45 8 0 11 -4 8 -10 -3 -5 -1 -10 4 -10 6 0 11 6 11 14 0 14 34
28 96 41 l31 6 18 -97 c10 -54 26 -121 36 -148 18 -46 19 -37 3 22 -6 20 -3
22 33 22 35 0 39 -3 41 -27 3 -39 9 -40 45 -4 l34 32 119 -2 c65 0 125 -6 132
-11 18 -15 15 -45 -5 -57 -16 -9 -16 -12 -3 -21 13 -9 13 -12 -1 -23 -15 -12
-15 -14 2 -36 10 -13 17 -26 15 -30 -3 -4 -7 -26 -10 -49 -6 -49 -20 -78 -45
-91 -23 -13 -198 -34 -216 -27 -17 6 -64 97 -95 184 -13 34 -25 61 -27 58 -2
-2 10 -39 26 -82 34 -87 88 -183 129 -229 15 -17 24 -26 20 -21 -16 20 -6 24
80 31 96 8 159 28 166 53 2 10 10 42 18 72 7 30 21 62 31 70 10 8 21 34 24 57
5 39 9 43 39 49 31 6 59 3 135 -12 23 -4 27 -11 38 -83 15 -91 36 -134 27 -56
-2 28 -10 73 -16 100 -9 41 -15 50 -33 51 -12 1 -48 5 -80 9 -40 5 -70 4 -98
-5 -43 -14 -64 -6 -36 14 10 8 17 26 16 42 0 27 -1 28 -9 7 -13 -33 -20 -28
-20 15 0 27 3 33 10 22 9 -13 10 -13 10 0 -1 20 -20 44 -47 59 -13 6 -23 18
-23 25 0 7 -11 30 -25 51 -24 35 -25 38 -8 50 16 12 14 15 -19 31 -21 9 -35
21 -32 25 2 4 -5 10 -16 14 -11 4 -18 10 -15 15 3 5 -11 13 -32 17 -50 10
-262 10 -290 0 -39 -14 -27 12 45 104 38 47 82 107 98 133 l29 46 70 1 c48 0
64 3 50 9 -11 5 -41 6 -68 3 l-47 -6 41 74 c41 73 139 290 139 309 0 6 4 10 8
10 5 0 12 -48 15 -107 13 -219 59 -392 138 -525 59 -100 154 -200 200 -210 8
-2 19 -10 26 -18 7 -9 12 -10 13 -4 0 6 -6 17 -14 23 -18 15 -71 142 -80 191
l-7 35 21 -25 c42 -49 115 -123 145 -145 48 -37 140 -88 126 -71 -25 29 -4 28
51 -3 l53 -31 -60 0 c-33 0 -65 -4 -72 -8 -6 -4 32 -7 85 -7 54 0 112 -3 130
-7 20 -5 31 -4 27 2 -3 5 22 11 57 13 l63 3 -69 2 c-56 2 -75 6 -95 25 -14 12
-19 14 -12 4 18 -23 7 -33 -21 -20 -17 7 -22 19 -23 49 -1 21 4 42 9 46 7 5 6
8 -2 8 -7 0 -10 4 -7 10 3 5 -5 45 -19 87 -47 152 -50 181 -27 363 12 91 21
216 21 279 0 63 2 112 4 110 2 -2 14 -33 26 -69z m780 36 c0 -19 75 -124 127
-177 44 -45 45 -49 57 -143 7 -53 11 -96 9 -96 -16 0 -82 63 -105 100 -46 73
-129 354 -98 335 5 -3 10 -12 10 -19z m-3100 -15 c0 -27 -13 -33 -35 -17 -21
15 -12 36 16 36 12 0 19 -7 19 -19z m404 -62 c-43 -46 -55 -49 -115 -35 -99
23 -99 31 0 44 49 7 100 16 113 21 34 13 35 4 2 -30z m2406 7 c0 -26 -10 -29
-210 -76 -151 -34 -166 -35 -180 -10 -7 12 -8 25 -3 29 4 4 71 22 148 39 187
42 176 40 213 41 27 1 32 -2 32 -23z m-2195 -78 c-39 -150 -65 -388 -70 -633
-3 -136 -8 -184 -24 -240 -32 -106 -70 -283 -84 -387 l-13 -93 -24 120 c-47
227 -30 458 62 840 17 72 31 144 31 160 0 17 2 24 5 16 3 -8 20 28 38 80 60
168 109 253 79 137z m-557 -10 c35 -62 127 -153 195 -193 35 -20 63 -28 100
-29 45 -1 52 -4 55 -22 4 -26 -14 -41 -52 -46 -47 -5 -109 -88 -130 -174 -28
-112 -31 -119 -49 -122 -11 -2 -45 25 -95 76 -62 64 -88 84 -135 101 -32 11
-67 21 -78 21 -29 0 -59 18 -59 36 0 8 15 21 34 29 82 35 134 143 141 294 2
42 4 77 4 79 1 1 10 2 20 2 13 0 29 -18 49 -52z m2793 -90 c-8 -24 -52 -41
-221 -87 -156 -42 -159 -43 -175 -10 l-15 28 37 7 c21 3 108 23 193 44 190 47
192 47 181 18z m-1097 -201 c10 10 46 11 40 1 -3 -4 0 -8 6 -8 6 0 8 -5 4 -12
-4 -7 -3 -8 5 -4 6 4 9 12 6 17 -11 16 7 10 22 -8 8 -10 11 -12 8 -5 -6 11 -3
11 13 1 12 -7 18 -18 14 -24 -3 -5 3 -3 13 5 10 8 16 10 12 3 -4 -6 -3 -14 2
-17 5 -4 15 -31 21 -61 8 -37 15 -53 23 -49 7 4 9 4 5 -1 -4 -4 1 -20 11 -34
10 -14 16 -32 13 -40 -2 -8 0 -11 5 -8 5 3 10 -1 10 -10 0 -32 -73 64 -91 121
-4 10 -9 17 -12 14 -10 -11 26 -152 59 -228 39 -90 34 -91 -51 -15 -111 100
-206 304 -228 489 l-6 51 45 -92 c24 -51 47 -90 51 -86z m1784 10 c24 -16 72
-42 108 -58 35 -16 64 -32 64 -35 0 -6 -93 3 -166 17 -50 10 -52 12 -59 47 -3
20 -9 45 -12 56 -6 21 -4 20 65 -27z m-2158 -37 c0 -5 -35 -55 -77 -112 l-78
-103 -3 63 c-3 67 9 97 36 87 9 -3 12 0 9 8 -2 7 6 18 19 24 13 6 22 8 19 4
-2 -4 2 -8 9 -8 8 0 12 6 9 13 -2 6 1 15 8 20 8 5 10 3 4 -6 -5 -8 1 -7 16 3
27 20 29 20 29 7z m-1663 -46 c8 -21 -13 -42 -28 -27 -13 13 -5 43 11 43 6 0
13 -7 17 -16z m1482 -61 c0 -10 1 -48 3 -85 3 -64 2 -68 -22 -77 -14 -6 -40
-20 -59 -32 l-34 -23 7 45 c10 67 26 120 34 115 4 -2 21 14 37 35 35 45 34 44
34 22z m1535 -26 c-5 -9 -3 -9 6 0 11 10 17 10 29 0 12 -9 13 -9 7 0 -5 9 -2
11 11 7 19 -6 65 -26 73 -32 7 -5 16 -112 9 -112 -18 0 -169 125 -169 140 0 3
9 6 20 7 13 1 18 -2 14 -10z m953 -93 c18 -20 31 -40 30 -44 -1 -4 14 -27 33
-51 82 -101 110 -178 110 -298 -1 -166 -50 -299 -143 -394 -42 -42 -69 -59
-137 -85 -87 -33 -140 -41 -140 -21 0 6 12 38 27 71 21 46 30 57 42 51 9 -4
37 -7 63 -7 94 2 176 80 212 203 29 100 15 261 -30 329 -42 65 -115 112 -173
112 -34 0 -36 5 -46 103 -5 52 -4 67 7 67 27 -1 89 -29 124 -55 19 -15 37 -25
40 -22 4 4 -33 31 -98 71 -41 24 -34 39 10 21 20 -8 51 -31 69 -51z m-685 -51
c21 -10 26 -17 20 -30 -5 -10 -18 -38 -29 -63 -12 -25 -24 -64 -28 -87 -4 -24
-11 -43 -16 -43 -4 0 -6 -6 -3 -14 3 -9 -12 -32 -36 -56 -45 -45 -63 -47 -35
-4 24 37 52 127 64 214 14 90 21 116 30 104 3 -5 18 -15 33 -21z m-3116 -25
c22 -42 49 -64 107 -85 57 -21 61 -43 13 -71 -31 -18 -50 -53 -72 -129 -6 -24
-32 -13 -54 22 -33 53 -48 65 -84 65 -31 0 -56 15 -56 33 0 4 16 15 36 23 42
18 69 71 61 120 -5 29 6 54 25 54 4 0 15 -14 24 -32z m4392 -188 c78 -313 95
-464 71 -623 -16 -103 -23 -109 -44 -35 -12 41 -19 106 -20 188 -3 122 -17
209 -50 300 -20 55 -30 221 -21 314 4 37 9 66 11 64 1 -2 25 -95 53 -208z
m-3221 146 c-4 -9 -11 -16 -17 -16 -11 0 -14 53 -3 64 11 10 27 -30 20 -48z
m278 5 c-5 -22 -2 -30 12 -35 17 -7 17 -9 -3 -25 -12 -9 -21 -28 -20 -41 1
-22 -4 -25 -41 -28 l-41 -3 -7 66 c-4 36 -5 69 -1 72 5 6 36 12 99 22 5 0 6
-12 2 -28z m-1131 13 c18 -7 21 -39 5 -50 -16 -9 -43 21 -36 40 7 18 9 18 31
10z m2707 -90 l-9 -39 -1 50 c-1 33 2 46 9 39 7 -7 7 -24 1 -50z m795 -18 c24
-24 44 -48 44 -55 0 -13 -80 45 -104 77 -16 20 -16 22 0 22 9 0 36 -20 60 -44z
m-2758 -1 c-3 -17 -4 -17 -18 0 -12 15 -12 17 -1 10 11 -6 13 -4 7 11 -5 14
-4 16 4 8 7 -7 10 -20 8 -29z m27 6 c0 -16 -3 -27 -7 -24 -13 7 -7 53 6 53 1
0 1 -13 1 -29z m2647 -2 c71 -27 102 -60 123 -126 21 -67 17 -178 -9 -238
l-18 -40 -74 80 c-41 44 -76 89 -79 100 -9 49 -14 245 -5 245 5 0 33 -9 62
-21z m-1911 -49 c15 -9 19 -21 19 -68 0 -31 -4 -64 -10 -72 -5 -9 -5 -19 2
-27 12 -15 4 -109 -16 -188 -17 -65 -45 -80 -172 -89 -76 -6 -99 -5 -105 6
-16 24 -9 28 41 28 54 0 155 23 175 40 42 35 69 227 42 293 -18 42 7 39 -282
41 -132 1 -150 3 -153 18 -3 14 7 18 55 21 138 8 385 6 404 -3z m1155 -88 c-8
-16 -21 -34 -29 -40 -12 -10 -13 -8 -9 15 4 27 26 53 44 53 5 0 2 -13 -6 -28z
m55 -63 l-9 -34 -1 31 c-1 17 2 34 6 37 12 13 14 -1 4 -34z m-21 -19 l0 -49
-37 22 c-21 12 -40 25 -41 29 -2 5 -9 5 -14 2 -7 -4 -8 -2 -4 5 4 6 11 9 16 6
13 -8 41 6 33 18 -3 5 -2 7 3 4 6 -3 16 -2 24 4 8 5 16 9 18 9 1 0 2 -22 2
-50z m-1130 -23 c0 -13 -7 -32 -15 -43 -14 -18 -15 -17 -9 11 12 60 24 76 24
32z m1930 -199 c0 -4 -13 -22 -28 -39 l-28 -31 -50 43 c-27 23 -48 50 -47 58
0 9 5 40 9 69 l7 54 68 -74 c37 -40 68 -76 69 -80z m-38 -230 c-23 -23 -44
-39 -48 -35 -4 4 12 25 35 48 56 53 68 41 13 -13z m-2500 -72 c59 -20 64 -24
100 -85 21 -36 35 -67 33 -69 -7 -8 -97 18 -156 45 -61 27 -69 41 -69 120 0
30 2 34 15 23 8 -7 43 -22 77 -34z m2223 4 c14 -22 -160 -305 -251 -408 -25
-29 -48 -51 -51 -49 -2 3 7 31 20 63 13 33 48 131 77 219 29 88 57 166 63 173
12 15 133 17 142 2z m-82 -272 c-18 -123 -21 -128 -22 -35 -1 56 4 85 15 102
9 14 17 25 19 25 1 0 -4 -42 -12 -92z m-433 -157 c-5 -68 -17 -138 -25 -155
-9 -18 -37 -54 -64 -80 l-49 -48 28 78 c31 88 47 158 32 135 -7 -10 -21 -12
-53 -7 l-44 7 38 -26 c36 -25 43 -39 31 -68 -4 -12 -12 -13 -38 -5 -33 10 -33
11 -40 86 -3 41 -4 77 -2 80 3 2 30 -8 62 -22 31 -15 59 -24 61 -22 6 6 52
234 54 266 1 14 6 -2 11 -35 6 -38 5 -105 -2 -184z m492 -240 l-9 -48 81 42
c74 39 251 93 263 81 9 -8 -36 -86 -84 -147 -45 -57 -134 -139 -151 -139 -5 0
-34 38 -65 83 -30 46 -68 94 -84 107 l-28 24 32 130 c17 72 35 149 40 171 11
56 16 -241 5 -304z m-2256 170 c23 19 49 0 73 -56 28 -65 38 -68 16 -5 -8 24
-14 45 -12 47 2 1 20 -21 40 -49 50 -73 141 -160 212 -203 l60 -37 -77 4 c-90
6 -159 35 -232 99 -25 22 -46 36 -46 31 0 -18 79 -251 96 -284 l17 -32 -29 19
c-66 42 -141 115 -196 188 -76 103 -136 209 -120 215 7 2 10 8 6 13 -3 5 -2 8
3 7 4 -1 19 4 32 11 19 11 22 11 15 -1 -5 -8 -1 -7 12 3 23 19 57 33 49 19 -3
-5 7 -3 22 5 17 9 31 11 37 5 6 -6 14 -6 22 1z m3173 -30 c16 -10 10 -84 -13
-148 -13 -36 -14 -37 -20 -13 -3 14 -7 58 -8 98 -3 75 4 86 41 63z m-383 -35
c-17 -15 -24 -25 -16 -28 9 -3 7 -15 -8 -44 -40 -78 -211 -294 -232 -294 -5 0
0 18 11 39 10 21 28 73 39 115 12 42 35 105 51 140 26 55 34 64 67 74 46 14
71 19 97 20 17 1 16 -2 -9 -22z m-1162 -59 c17 -12 17 -16 4 -42 l-15 -28 -12
33 c-18 53 -12 63 23 37z m74 -95 c-12 -48 -17 -50 -43 -22 -18 20 -18 21 10
50 36 37 47 28 33 -28z m398 -85 c-10 -41 -24 -65 -66 -110 -29 -31 -55 -56
-57 -54 -2 2 -38 -13 -80 -34 -42 -21 -78 -37 -80 -35 -2 1 0 24 3 50 9 62 60
119 177 196 107 71 122 69 103 -13z m1008 52 c-3 -5 -11 -6 -17 -2 -8 5 -8 2
0 -9 7 -8 9 -19 5 -23 -4 -5 -1 -5 6 -1 7 4 10 11 8 15 -3 4 1 8 8 8 11 0 12
-4 3 -19 -12 -19 -60 -48 -114 -69 l-27 -10 26 24 c14 13 38 42 53 65 17 25
32 39 41 35 8 -3 11 -9 8 -14z m323 -46 c10 -21 32 -47 50 -58 46 -29 49 -45
15 -75 -17 -14 -33 -38 -36 -53 -5 -22 -12 -28 -29 -25 -17 2 -23 11 -25 35
-3 28 -8 34 -42 43 -54 15 -59 28 -21 60 25 20 32 33 31 56 -3 47 -1 54 19 54
12 0 26 -14 38 -37z m-842 -169 c11 -7 35 -41 54 -76 33 -58 33 -61 10 -43
-22 18 -72 72 -119 129 -14 18 -14 18 10 11 14 -4 34 -14 45 -21z m553 -6 c7
-7 12 -22 12 -33 0 -25 57 -109 91 -133 13 -9 53 -33 89 -52 83 -45 85 -63 10
-102 -61 -31 -107 -88 -139 -174 -15 -38 -24 -49 -41 -49 -16 0 -25 9 -35 35
-28 78 -36 91 -77 121 -24 17 -64 40 -90 52 -55 23 -64 51 -22 67 74 29 136
114 150 210 10 64 27 83 52 58z m-259 -372 c18 -29 21 -48 20 -137 -1 -57 4
-129 9 -159 10 -55 7 -79 -8 -63 -23 23 -42 129 -47 256 -3 75 -3 137 0 137 3
0 15 -15 26 -34z m-2315 -492 c8 -22 9 -21 -23 -26 -30 -4 -31 0 -8 30 13 16
24 15 31 -4z m681 5 c11 -16 1 -19 -13 -3 -7 8 -8 14 -3 14 5 0 13 -5 16 -11z"/>
<path d="M2998 4363 c7 -3 16 -2 19 1 4 3 -2 6 -13 5 -11 0 -14 -3 -6 -6z"/>
<path d="M2175 4106 c55 -13 108 -27 118 -31 9 -4 17 -5 17 -1 0 9 -122 43
-180 50 -41 4 -29 0 45 -18z"/>
<path d="M2783 3813 c15 -2 37 -2 50 0 12 2 0 4 -28 4 -27 0 -38 -2 -22 -4z"/>
<path d="M3333 3813 c9 -2 25 -2 35 0 9 3 1 5 -18 5 -19 0 -27 -2 -17 -5z"/>
<path d="M2718 3803 c7 -3 16 -2 19 1 4 3 -2 6 -13 5 -11 0 -14 -3 -6 -6z"/>
<path d="M1718 3783 c6 -2 18 -2 25 0 6 3 1 5 -13 5 -14 0 -19 -2 -12 -5z"/>
<path d="M2890 3770 c-97 -7 -127 -19 -136 -56 -9 -35 11 -245 25 -272 7 -12
19 -21 29 -21 16 1 16 2 0 6 -15 4 -26 33 -27 73 0 8 -3 38 -6 65 -5 37 -4 46
4 35 7 -9 11 -10 11 -3 0 6 -4 14 -9 17 -12 8 -23 88 -15 109 3 9 10 17 15 17
5 0 4 -12 -2 -26 -14 -38 -4 -41 11 -4 18 44 36 50 147 50 67 0 93 3 83 10 -8
5 -22 9 -30 8 -8 -1 -53 -4 -100 -8z"/>
<path d="M3103 3773 c15 -2 37 -2 50 0 12 2 0 4 -28 4 -27 0 -38 -2 -22 -4z"/>
<path d="M2680 3724 c0 -40 -2 -45 -17 -39 -10 5 -47 9 -83 11 l-65 2 65 -7
c36 -4 75 -13 88 -20 22 -11 22 -11 22 44 0 30 -2 55 -5 55 -3 0 -5 -21 -5
-46z"/>
<path d="M3228 3763 c6 -2 18 -2 25 0 6 3 1 5 -13 5 -14 0 -19 -2 -12 -5z"/>
<path d="M3285 3765 c25 -9 107 -12 94 -4 -8 5 -34 8 -59 8 -25 0 -40 -2 -35
-4z"/>
<path d="M3410 3753 c22 -9 30 -24 30 -59 l0 -31 -42 8 c-94 18 -278 3 -278
-23 0 -20 9 -23 65 -25 88 -3 228 -18 242 -26 15 -9 7 -83 -14 -125 -9 -18
-26 -35 -37 -37 -12 -3 -97 -9 -190 -14 -92 -5 -171 -13 -175 -16 -6 -7 186 2
323 14 66 6 71 8 89 39 15 25 20 60 24 152 6 124 0 151 -36 149 -13 0 -14 -2
-1 -6z m-105 -92 c8 -14 -33 -24 -63 -15 l-27 7 25 7 c36 11 58 11 65 1z"/>
<path d="M1715 3710 c-3 -5 -1 -10 4 -10 6 0 11 5 11 10 0 6 -2 10 -4 10 -3 0
-8 -4 -11 -10z"/>
<path d="M1741 3684 c0 -11 3 -14 6 -6 3 7 2 16 -1 19 -3 4 -6 -2 -5 -13z"/>
<path d="M1713 3675 c0 -8 4 -12 9 -9 5 3 6 10 3 15 -9 13 -12 11 -12 -6z"/>
<path d="M2791 3564 c0 -11 3 -14 6 -6 3 7 2 16 -1 19 -3 4 -6 -2 -5 -13z"/>
<path d="M2185 3496 c33 -16 76 -19 115 -6 21 7 17 8 -20 9 -25 1 -63 3 -85 6
l-40 5 30 -14z"/>
<path d="M2730 3418 c0 -25 28 -48 58 -47 27 1 27 1 -3 8 -17 3 -35 16 -42 31
-9 17 -13 20 -13 8z"/>
<path d="M2868 3413 c18 -2 45 -2 60 0 15 2 0 4 -33 4 -33 0 -45 -2 -27 -4z"/>
<path d="M1910 3390 c-22 -7 -19 -8 16 -9 45 -1 90 -26 64 -35 -8 -3 -26 -7
-40 -9 -14 -3 1 -3 32 -1 34 2 74 -2 99 -11 72 -26 52 -11 -39 28 -111 49
-103 46 -132 37z"/>
<path d="M2831 3039 c-13 -10 -19 -19 -14 -19 13 0 49 27 43 33 -3 3 -16 -3
-29 -14z"/>
<path d="M2530 3024 c0 -7 52 -25 57 -20 2 2 -10 8 -26 14 -17 6 -31 9 -31 6z"/>
<path d="M2570 2061 c39 -12 127 -22 110 -12 -8 5 -42 11 -75 14 -34 3 -49 2
-35 -2z"/>
<path d="M3297 2050 c-70 -4 -130 -10 -133 -13 -8 -8 234 4 276 13 42 10 31
10 -143 0z"/>
<path d="M2486 1896 c9 -93 32 -154 74 -200 39 -42 111 -87 160 -101 14 -3 -1
7 -33 24 -129 67 -165 115 -191 256 -13 69 -15 72 -10 21z"/>
<path d="M2920 1580 c-8 -5 -10 -10 -5 -10 6 0 17 5 25 10 8 5 11 10 5 10 -5
0 -17 -5 -25 -10z"/>
<path d="M2790 1570 c8 -5 28 -10 44 -10 39 0 30 6 -19 13 -27 4 -35 3 -25 -3z"/>
<path d="M2580 1536 c37 -40 107 -77 143 -75 17 1 15 3 -8 9 -55 14 -84 29
-127 67 l-43 37 35 -38z"/>
<path d="M2878 1563 c7 -3 16 -2 19 1 4 3 -2 6 -13 5 -11 0 -14 -3 -6 -6z"/>
<path d="M747 4491 c-4 -15 7 -27 50 -56 30 -20 57 -35 59 -33 2 2 -21 28 -50
57 -47 46 -54 50 -59 32z"/>
<path d="M730 4416 c0 -7 37 -35 83 -61 45 -26 92 -55 105 -63 14 -9 22 -10
22 -3 0 6 -22 22 -48 35 -27 13 -71 43 -100 65 -57 45 -62 47 -62 27z"/>
<path d="M702 4345 c-11 -23 -8 -27 41 -58 97 -62 144 -87 150 -80 15 15 5 33
-30 55 -21 12 -62 42 -90 65 -29 24 -54 43 -56 43 -2 0 -9 -11 -15 -25z"/>
<path d="M645 4269 c-8 -12 -13 -9 54 -39 29 -13 76 -46 105 -72 57 -53 66
-57 66 -28 0 13 -13 26 -37 39 -21 10 -66 40 -101 65 -65 48 -77 53 -87 35z"/>
<path d="M2471 4304 c-1 -6 5 -17 12 -23 10 -8 14 -7 14 4 0 8 -4 12 -8 9 -4
-2 -10 2 -12 8 -4 8 -6 9 -6 2z"/>
<path d="M4927 1968 c-5 -15 121 -153 131 -143 3 2 -19 33 -48 67 -82 97 -76
92 -83 76z"/>
<path d="M4892 1908 c-9 -11 2 -27 52 -77 40 -40 68 -61 76 -56 8 5 0 19 -27
44 -21 20 -50 51 -64 69 -21 27 -28 31 -37 20z"/>
<path d="M5081 1869 c8 -16 14 -18 22 -10 9 9 8 14 -3 21 -24 16 -31 11 -19
-11z"/>
<path d="M4836 1851 c-6 -9 1 -16 48 -45 l29 -18 -28 36 c-28 37 -39 43 -49
27z"/>
<path d="M4962 1725 c6 -13 15 -22 19 -19 15 9 10 31 -7 38 -24 9 -24 8 -12
-19z"/>
<path d="M7 2777 c50 -79 152 -221 128 -177 -16 29 -127 190 -132 190 -2 0 0
-6 4 -13z"/>
<path d="M0 2501 c0 -6 4 -13 10 -16 6 -3 7 1 4 9 -7 18 -14 21 -14 7z"/>
<path d="M110 2275 c0 -3 9 -24 21 -46 13 -27 19 -55 17 -82 l-3 -42 -60 55
-60 54 66 -69 c36 -39 86 -99 111 -135 26 -36 63 -81 84 -100 31 -29 29 -25
-10 20 -27 30 -56 66 -64 80 -8 14 -22 36 -31 50 -8 14 -16 50 -17 80 -1 34
-9 71 -23 98 -19 38 -31 52 -31 37z"/>
<path d="M0 1990 c0 -12 97 -140 107 -140 2 0 -12 24 -33 53 -64 89 -74 100
-74 87z"/>
<path d="M345 1865 c54 -41 157 -103 140 -85 -10 11 -50 38 -89 60 -39 22 -62
33 -51 25z"/>
<path d="M225 1654 c107 -169 184 -278 193 -270 2 3 -9 21 -25 39 -17 19 -59
80 -93 136 -35 56 -70 107 -79 114 -10 8 -9 2 4 -19z"/>
<path d="M435 1371 c2 -5 18 -14 34 -20 23 -10 31 -23 43 -64 l14 -52 0 50
c-1 51 -1 51 -49 72 -26 12 -45 18 -42 14z"/>
<path d="M532 1180 c0 -19 2 -27 5 -17 2 9 2 25 0 35 -3 9 -5 1 -5 -18z"/>
<path d="M541 1116 c0 -17 6 -71 14 -120 8 -50 19 -127 24 -171 l10 -80 -5 94
c-3 51 -11 128 -19 170 -8 42 -16 90 -18 106 l-4 30 -2 -29z"/>
<path d="M1091 854 c0 -11 3 -14 6 -6 3 7 2 16 -1 19 -3 4 -6 -2 -5 -13z"/>
<path d="M1102 810 c0 -14 2 -19 5 -12 2 6 2 18 0 25 -3 6 -5 1 -5 -13z"/>
<path d="M4733 765 c0 -22 2 -30 4 -17 2 12 2 30 0 40 -3 9 -5 -1 -4 -23z"/>
<path d="M593 640 c0 -47 2 -66 4 -42 2 23 2 61 0 85 -2 23 -4 4 -4 -43z"/>
<path d="M4742 690 c0 -19 2 -27 5 -17 2 9 2 25 0 35 -3 9 -5 1 -5 -18z"/>
<path d="M4752 620 c0 -14 2 -19 5 -12 2 6 2 18 0 25 -3 6 -5 1 -5 -13z"/>
<path d="M593 470 c0 -47 3 -116 7 -155 l7 -70 0 100 c1 55 -2 125 -7 155 -7
52 -7 51 -7 -30z"/>
<path d="M4841 254 c0 -11 3 -14 6 -6 3 7 2 16 -1 19 -3 4 -6 -2 -5 -13z"/>
<path d="M4852 215 c0 -11 4 -33 8 -50 7 -27 8 -27 8 -5 0 14 -4 36 -8 50 -6
20 -8 21 -8 5z"/>
<path d="M588 111 c-2 -61 0 -111 3 -111 10 0 17 204 8 214 -4 5 -9 -41 -11
-103z"/>
<path d="M4873 60 c0 -36 2 -50 4 -32 2 17 2 47 0 65 -2 17 -4 3 -4 -33z"/>
</g>
</svg>
